<?xml version="1.0" encoding="utf-8"?>
<!-- Generator: Adobe Illustrator 16.0.0, SVG Export Plug-In . SVG Version: 6.00 Build 0)  -->
<!DOCTYPE svg PUBLIC "-//W3C//DTD SVG 1.1//EN" "http://www.w3.org/Graphics/SVG/1.1/DTD/svg11.dtd">
<svg version="1.1" id="Layer_1" xmlns="http://www.w3.org/2000/svg" xmlns:xlink="http://www.w3.org/1999/xlink" x="0px" y="0px"
	 width="512px" height="512px" viewBox="0 0 512 512" enable-background="new 0 0 512 512" xml:space="preserve">
<path d="M336.602,83.94c0.029-0.838,0.248-1.623,0.248-2.469c0-40.297-32.654-72.968-72.969-72.968
	c-40.283,0-72.938,32.671-72.938,72.968c0,0.845,0.222,1.629,0.249,2.467c-31.109,6.865-54.414,34.507-54.414,67.685
	c0,6.055,0.871,11.892,2.397,17.464c1.01,3.704,4.357,6.273,8.201,6.273h2.91c-2.639,7.667-2.953,16.033-0.42,23.908l91.321,284.73
	c3.188,9.899,12.312,16.546,22.709,16.546c10.443,0,19.565-6.679,22.71-16.562l91.334-284.7c2.531-7.864,2.188-16.23-0.4-23.922
	h2.829c3.829,0,7.19-2.553,8.202-6.243c1.541-5.586,2.43-11.439,2.43-17.494C391.002,118.447,367.697,90.807,336.602,83.94z
	 M331.029,101.442c4.404,0,7.969,3.564,7.969,7.969c0,4.404-3.564,7.969-7.969,7.969c-20.406,0-37.014,16.623-37.014,37.044
	c0,4.404-3.564,7.969-7.97,7.969s-7.97-3.565-7.97-7.969C278.076,125.21,301.828,101.442,331.029,101.442z M263.881,28.488
	c4.404,0,7.971,3.564,7.971,7.969c0,4.406-3.566,7.969-7.971,7.969c-20.405,0-37.014,16.624-37.014,37.044
	c0,4.406-3.563,7.969-7.969,7.969s-7.969-3.563-7.969-7.969C210.93,52.256,234.682,28.488,263.881,28.488z M211.535,101.442
	c4.406,0,7.971,3.564,7.971,7.969c0,4.404-3.564,7.969-7.971,7.969c-20.404,0-37.013,16.623-37.013,37.044
	c0,4.404-3.563,7.969-7.97,7.969c-4.404,0-7.969-3.565-7.969-7.969C158.584,125.21,182.337,101.442,211.535,101.442z
	 M287.152,223.368l24.029,27.721l-26.522,30.596l-24.03-27.721L287.152,223.368z M282.13,181.087h10.044l-5.023,5.794
	L282.13,181.087z M244.814,235.72l-26.523-30.597l20.838-24.036H250.5l20.838,24.037L244.814,235.72z M207.498,181.087l-5.021,5.792
	l-5.022-5.792H207.498z M194.155,232.961l8.319-9.595l26.523,30.597l-20.516,23.667L194.155,232.961z M244.813,272.207
	l24.033,27.722l-24.028,27.719l-24.03-27.725L244.813,272.207z M238.546,371.369l6.271-7.233l23.462,27.068l-17.06,19.681
	L238.546,371.369z M263.897,450.41l-4.134-12.891l13.129-15.146L263.897,450.41z M291.477,364.44l-7.385,8.519l-23.459-27.067
	l24.028-27.721l15.808,18.237L291.477,364.44z M309.012,309.777l-8.537-9.849l18.568-21.423L309.012,309.777z M347.59,189.524
	l-9.963,31.058l-10.63,12.263l-24.03-27.72l20.836-24.037h17.623c2.055,0,4.018,0.997,5.216,2.646
	C347.87,185.415,348.213,187.563,347.59,189.524z"/>
</svg>
